<?xml version="1.0" encoding="utf-8"?>
<!-- Generator: Adobe Illustrator 25.4.1, SVG Export Plug-In . SVG Version: 6.00 Build 0)  -->
<svg version="1.1" xmlns="http://www.w3.org/2000/svg" xmlns:xlink="http://www.w3.org/1999/xlink" x="0px" y="0px"
	 viewBox="0 0 500 500" style="enable-background:new 0 0 500 500;" xml:space="preserve">
<style type="text/css">
	.st0{fill:#161616;}
	.st1{fill:#3A4E93;}
	.st2{fill:url(#SVGID_1_);}
	.st3{fill:#303030;}
	.st4{fill:none;stroke:#000000;stroke-miterlimit:10;}
	.st5{display:none;fill:#0000FF;stroke:#000000;stroke-miterlimit:10;}
	.st6{fill:#3A4E93;stroke:#3A4E93;stroke-miterlimit:10;}
	.st7{fill:#0000FF;stroke:#000000;stroke-miterlimit:10;}
	.st8{fill:#FFFF00;}
</style>
<g id="topi_toga">
	<path class="st0" d="M174.72,87.57l11.06,28.22c-1.28-3.25-22.6,2.06-47.62,11.87c-25.03,9.81-44.28,20.4-43.01,23.65l-11.06-28.22
		c-1.28-3.25,17.98-13.85,43.01-23.66C152.13,89.63,173.45,84.32,174.72,87.57z"/>
	<path class="st1" d="M185.78,115.79l-90.63,35.52c-1.28-3.25,17.98-13.84,43.01-23.65C163.19,117.85,184.51,112.53,185.78,115.79z"
		/>
	<radialGradient id="SVGID_1_" cx="125.9366" cy="94.416" r="71.0478" fx="140.7876" fy="141.1173" gradientUnits="userSpaceOnUse">
		<stop  offset="0.3212" style="stop-color:#161616"/>
		<stop  offset="0.4687" style="stop-color:#101010"/>
		<stop  offset="1" style="stop-color:#000000"/>
	</radialGradient>
	<path class="st2" d="M193.9,71.37l-19.24,16.03l0.07,0.16c-1.28-3.25-22.6,2.06-47.63,11.88c-25.03,9.8-44.28,20.4-43.01,23.65
		l-0.07-0.16l-14.2,0.75l-3.95,0.21l-6.87,0.36c-1.35,0.07-2.1-1.57-1.16-2.55l10.55-10.85l9.77-10.05
		c0.04-0.05,0.09-0.11,0.13-0.14l0.53-0.53c0.03-0.04,0.07-0.07,0.11-0.11l8.96-9.22h0.01l25.04-25.77c0.3-0.32,0.72-0.47,1.16-0.45
		l78.92,4.13C194.39,68.78,194.95,70.49,193.9,71.37z"/>
	<path class="st3" d="M185.78,115.79c1.28,3.25-17.98,13.84-43,23.65c-25.03,9.81-46.35,15.13-47.63,11.87
		c-1.28-3.25,17.98-13.84,43.01-23.65C163.19,117.85,184.51,112.53,185.78,115.79z"/>
</g>
<g id="main_logo">
	<line class="st4" x1="153.89" y1="298.27" x2="140.83" y2="328.84"/>
	<path class="st5" d="M403.28,98.68c-3.08,3.92-7.6,6.42-12.13,7.29c-1.45-0.53-2.72-1.26-3.96-2.12
		c-4.67-3.26-8.64-8.35-17.55-11.06c-1.97-0.61-3.99-1.12-6.02-1.55c-0.01-0.01-0.04-0.01-0.07-0.01c-4.95-1.05-10.08-1.6-15.32-1.6
		h-0.37c-0.37,0-0.72,0-1.09,0.01c-0.21,0-0.45,0-0.7,0.01c-0.45,0.01-0.89,0.03-1.34,0.05c-0.5,0.01-1.05,0.05-1.66,0.09
		c-0.61,0.04-1.22,0.09-1.83,0.16h-0.11c-0.39,0.04-0.8,0.08-1.2,0.13c-0.95,0.11-1.96,0.22-3.03,0.39
		c-3.33,0.49-7.14,1.26-11.05,2.47c-13.4,4.18-25.16,12.07-34.09,22.48c-0.01,0.03-0.03,0.04-0.05,0.07
		c-3.47,4.05-6.51,8.48-9.04,13.23l-14.56-36.35c14.57-16.41,34.13-28.3,56.29-33.32c0,0,0.01,0,0.03,0
		c0.3-0.08,0.62-0.14,0.93-0.21c0.11-0.03,0.2-0.05,0.3-0.07c5.85-1.25,11.86-2,17.99-2.24c0.07-0.01,0.12-0.01,0.18-0.01
		c0.54-0.03,1.04-0.05,1.47-0.07c0.24-0.01,0.46-0.01,0.68-0.01c0.55-0.01,1.12-0.03,1.67-0.03c0.05-0.01,0.11-0.01,0.16-0.01h0.32
		c1.14,0.04,5.47,0.18,11.36,0.93c6.91,0.89,15.99,2.6,24.71,5.93c9.43,3.6,18.31,6.98,21.7,15.68
		C408.16,84.62,408.07,92.59,403.28,98.68z"/>
	<path class="st6" d="M442.92,311.58c-0.3,0.89-0.67,1.75-1.12,2.54c-1.83,3.33-4.91,5.81-8.85,7.89
		c-6.52,3.45-15.49,5.79-25.36,8.96c-10.35,3.33-21.39,5.13-32.86,5.13h-0.3c-0.05,0-0.12,0-0.17-0.01c-7.55-0.03-14.9-0.83-22-2.35
		c-0.11-0.01-0.2-0.04-0.3-0.07c-21.91-4.75-41.31-16.2-55.95-32.09c-0.74-0.8-0.85-1.99-0.32-2.95c1.39-2.48,2.68-5.02,3.87-7.62
		l8.52-21.27c0.76-1.88,3.33-2.16,4.44-0.46c9.29,14.26,23.34,25.11,39.92,30.28c3.91,1.21,7.72,1.99,11.05,2.47
		c1.07,0.17,2.08,0.29,3.03,0.39c0.39,0.05,0.8,0.09,1.2,0.13h0.11c0.6,0.07,1.22,0.12,1.83,0.16c0.61,0.04,1.16,0.08,1.66,0.09
		c0.45,0.03,0.89,0.04,1.34,0.05c0.25,0.01,0.49,0.01,0.7,0.01c0.37,0.01,0.72,0.01,1.09,0.01h0.37c7.44,0,14.64-1.1,21.41-3.17
		c11.27-3.42,14.63-10.67,21.52-13.19c1.32-0.49,2.76-0.79,4.42-0.87c0.64-0.03,10.6-0.34,16.9,7.18
		C443.35,297.95,444.93,305.5,442.92,311.58z"/>
	<path class="st6" d="M439.05,165.23c-6.3,7.52-16.26,7.21-16.9,7.18c-1.66-0.08-3.1-0.38-4.42-0.87
		c-6.89-2.53-10.25-9.77-21.52-13.19c-6.77-2.06-13.97-3.17-21.41-3.17h-0.37c-0.37,0-0.72,0-1.09,0.01c-0.21,0-0.45,0-0.7,0.01
		c-0.45,0.01-0.89,0.03-1.34,0.05c-0.5,0.01-1.05,0.05-1.66,0.09c-0.61,0.04-1.22,0.09-1.83,0.16h-0.11
		c-0.39,0.04-0.8,0.08-1.2,0.13c-0.95,0.11-1.96,0.22-3.03,0.39c-3.33,0.49-7.14,1.26-11.05,2.47
		c-13.4,4.18-25.16,12.07-34.09,22.48c-0.01,0.03-0.03,0.04-0.05,0.07c-8.04,9.97-11.89,19.19-12.34,20.28l-0.29,0.72l-28.63,71.48
		c-16.89,36.92-54.15,62.55-97.4,62.55c-0.41,0-0.82,0-1.22-0.01c-58.57-0.64-105.84-48.32-105.84-107.05
		c0-59.13,47.93-107.06,107.06-107.06c11.47,0,22.5,1.8,32.86,5.13c17.26,5.55,31.75,8.54,35.33,19.39
		c2.01,6.08,0.43,13.63-3.87,18.74c-6.3,7.52-16.26,7.21-16.9,7.18c-10.32-0.49-12.52-9.98-25.94-14.06
		c-6.8-2.06-14.01-3.17-21.48-3.17c-40.79,0-73.85,33.07-73.85,73.85s33.07,73.85,73.85,73.85c30.71,0,57.06-18.76,68.18-45.44
		l0.67-1.67l28.54-71.25c4.87-10.64,11.43-20.33,19.33-28.76c0.95-1.01,1.92-2.01,2.91-2.99c5.42-5.33,11.4-10.09,17.85-14.19l0,0
		c10.48-6.69,22.29-11.47,34.83-14.18c0.11-0.03,0.2-0.05,0.3-0.07c7.1-1.53,14.93-2.34,22.48-2.37c0.05-0.01,0,0,0,0
		c11.47,0,22.5,1.8,32.86,5.13c9.86,3.17,18.83,5.51,25.36,8.96c3.95,2.08,7.02,4.56,8.85,7.89c0.45,0.79,0.82,1.64,1.12,2.54
		C444.93,152.56,443.35,160.11,439.05,165.23z"/>
	<path class="st5" d="M424.55,230.59c-1.38,7.1-4.89,13.05-9.31,17.97c-2.71,3.01-5.75,5.63-8.85,7.89
		c-9.97,7.26-20.54,10.76-22.41,11.35c-12.14,3.84-22.53,3.37-36.1,2.74c-0.05,0-0.12,0-0.17-0.01c-5.17-0.24-13.01-0.55-22-2.35
		c-0.11-0.01-0.2-0.04-0.3-0.07c-2.93-0.59-6-1.34-9.13-2.3c-18.81-5.81-35.42-16.66-48.23-30.97l0.11-0.25l14.56-36.35
		c9.06,16.95,24.53,29.96,43.18,35.78c3.91,1.21,7.72,1.99,11.05,2.47c1.07,0.17,2.08,0.29,3.03,0.39c0.39,0.05,0.8,0.09,1.2,0.13
		h0.11c0.61,0.07,1.22,0.12,1.83,0.16c0.6,0.04,1.16,0.08,1.66,0.09c0.5,0.03,0.95,0.04,1.34,0.05c0.25,0.01,0.49,0.01,0.7,0.01
		c0.7,0.03,1.09,0.01,1.09,0.01h0.37c4.43,0,10.46-0.01,16.57-0.7c6.29-0.7,12.67-2.1,17.47-4.91c5.14-3,7.27-6.89,8.89-10.76
		c2.22-5.3,3.49-10.57,10.27-13.48c6.1-2.62,14.72-2.5,19.73,2.25C427.77,215.97,425.16,227.46,424.55,230.59z"/>
	<path class="st7" d="M322.17,175.66"/>
</g>
<g id="anunya_topi">
	<path class="st8" d="M87.89,90.8l-8.96,9.22c-0.04,0.04-0.08,0.07-0.11,0.11l-0.53,0.53c-0.04,0.04-0.09,0.09-0.13,0.14
		c-4.87,5.05-7.63,13.21-8.35,22.89c-0.18,2.28-0.25,4.64-0.2,7.06c-0.05,24.62-0.11,49.19-0.14,73.75c0,1.08-0.88,1.96-1.97,1.96
		c-1.09,0-1.97-0.88-1.97-1.97c0.04-24.56,0.09-49.13,0.14-73.69c-0.05-2.35,0.01-4.66,0.2-6.89c0.37-4.7,1.22-9.1,2.53-13.05
		c1.78-5.37,4.37-9.9,7.68-13.3C80.18,93.36,82.38,90.8,87.89,90.8z"/>
	<g id="Layer_6">
		<g id="Layer_4">
			<path class="st8" d="M60.82,179.95v4.93c0,0.93,0.76,1.69,1.69,1.69h10.01c0.93,0,1.69-0.76,1.69-1.69v-4.93
				c0-0.93-0.76-1.69-1.69-1.69H62.51C61.57,178.26,60.82,179.02,60.82,179.95z"/>
			<path class="st8" d="M77.11,206.97H57.9c-1.24,0-2.05-1.28-1.53-2.4l9.61-20.54c0.61-1.3,2.45-1.3,3.06,0l9.61,20.54
				C79.17,205.69,78.35,206.97,77.11,206.97z"/>
		</g>
	</g>
</g>
<g id="Layer_7">
	<g>
		<g>
			<path class="st6" d="M93.73,444.75c-4.08,0-7.74-0.8-10.98-2.41c-3.24-1.61-5.81-4.02-7.7-7.24c-1.9-3.21-2.84-7.17-2.84-11.88
				c0-4.32,0.74-8.29,2.23-11.92c1.49-3.62,3.56-6.77,6.23-9.43s5.81-4.73,9.43-6.19c3.62-1.46,7.57-2.2,11.84-2.2
				c4.22,0,7.45,0.47,9.68,1.4s3.35,2.72,3.35,5.36c0,1.34-0.29,2.53-0.86,3.56c-0.58,1.03-1.22,1.55-1.94,1.55
				c-0.43,0-1.1-0.28-2.02-0.83c-0.91-0.55-1.68-1.02-2.3-1.4c-1.15-0.77-2.42-1.55-3.82-2.34c-1.39-0.79-2.98-1.19-4.75-1.19
				c-2.88,0-5.39,0.9-7.52,2.7c-2.14,1.8-3.79,4.37-4.97,7.7c-1.18,3.34-1.76,7.31-1.76,11.92c0,3.79,0.43,6.92,1.3,9.4
				c0.86,2.47,2.09,4.3,3.67,5.47c1.58,1.18,3.43,1.76,5.54,1.76c1.82,0,3.47-0.4,4.93-1.19c1.46-0.79,2.77-1.72,3.92-2.77
				c1.15-1.06,2.2-1.98,3.13-2.77s1.84-1.19,2.7-1.19c0.72,0,1.27,0.24,1.66,0.72c0.38,0.48,0.58,1.13,0.58,1.94
				c0,2.11-0.85,4.04-2.56,5.8c-1.7,1.75-3.97,3.13-6.8,4.14C100.25,444.24,97.13,444.75,93.73,444.75z"/>
			<path class="st6" d="M120.8,444.75c-0.91,0-1.67-0.66-2.27-1.98c-0.6-1.32-0.9-2.8-0.9-4.43c0-1.1,0.04-2.14,0.11-3.1
				c0.07-0.96,0.2-2.26,0.4-3.89l2.59-23.11h7.34c1.2,0,2.04,0.53,2.52,1.58c0.48,1.06,0.72,2.26,0.72,3.6
				c0,0.67-0.05,1.38-0.14,2.12c-0.1,0.75-0.24,1.88-0.43,3.42l-1.37,11.74c-0.24,2.35-0.48,4.37-0.72,6.05
				c-0.24,1.68-0.44,3.16-0.61,4.43c-0.17,1.27-0.32,2.46-0.47,3.56H120.8z M127.13,405.87c-1.68,0-3.13-0.58-4.36-1.73
				c-1.22-1.15-1.84-2.64-1.84-4.46c0-2.21,0.71-3.92,2.12-5.15c1.42-1.22,3.06-1.84,4.93-1.84c1.73,0,3.18,0.5,4.36,1.51
				c1.18,1.01,1.76,2.54,1.76,4.61c0,2.02-0.7,3.7-2.09,5.04C130.64,405.2,129.01,405.87,127.13,405.87z"/>
			<path class="st6" d="M139.08,444.6c-0.62,0-1.12-0.11-1.48-0.32c-0.36-0.22-0.58-0.78-0.65-1.69c-0.07-0.91,0.01-2.38,0.25-4.39
				l3.38-29.95h7.06c1.3,0,2.22,0.53,2.77,1.58c0.55,1.06,0.83,2.26,0.83,3.6c0,0.62-0.25,1.6-0.76,2.92
				c-0.5,1.32-1.06,2.71-1.66,4.18c-0.6,1.46-1.07,2.75-1.4,3.85l-1.73,5.9l3.6-0.43l-1.22,11.45c-0.05,0.67-0.48,1.22-1.3,1.66
				c-0.82,0.43-1.78,0.77-2.88,1.01c-1.1,0.24-2.11,0.41-3.02,0.5C139.97,444.55,139.37,444.6,139.08,444.6z M148.08,441.29
				l-2.74-10.3c1.78-4.61,3.58-8.6,5.4-11.99c1.82-3.38,3.7-6.01,5.62-7.88c1.92-1.87,3.86-2.81,5.83-2.81
				c1.25,0,2.29,0.34,3.13,1.01c0.84,0.67,1.26,1.85,1.26,3.53c0,1.1-0.14,2.21-0.43,3.31c-0.29,1.1-0.7,2.02-1.22,2.74
				c-0.53,0.72-1.15,1.08-1.87,1.08c-0.62,0-1.38-0.23-2.27-0.68c-0.89-0.46-1.88-0.68-2.99-0.68c-0.72,0-1.55,0.57-2.48,1.69
				c-0.94,1.13-1.9,2.7-2.88,4.72c-0.98,2.02-1.86,4.4-2.63,7.16C149.04,434.94,148.47,437.98,148.08,441.29z"/>
			<path class="st6" d="M178.76,444.75c-3.94,0-7.06-1.18-9.36-3.53c-2.3-2.35-3.46-5.74-3.46-10.15c0-4.32,0.91-8.21,2.74-11.66
				c1.82-3.46,4.32-6.18,7.49-8.17c3.17-1.99,6.77-2.99,10.8-2.99c2.69,0,4.84,0.38,6.44,1.15c1.61,0.77,2.41,1.99,2.41,3.67
				c0,0.77-0.19,1.65-0.58,2.63c-0.38,0.98-0.85,1.83-1.4,2.52c-0.55,0.7-1.14,1.04-1.76,1.04c-0.34,0-0.68-0.13-1.04-0.4
				c-0.36-0.26-0.68-0.54-0.97-0.83c-0.43-0.43-1.03-0.97-1.8-1.62c-0.77-0.65-1.61-1.21-2.52-1.69c-0.91-0.48-1.8-0.72-2.66-0.72
				c-1.2,0-2.26,0.67-3.17,2.02c-0.91,1.34-1.61,3.13-2.09,5.36c-0.48,2.23-0.72,4.69-0.72,7.38c0,2.64,0.37,4.69,1.12,6.16
				c0.74,1.46,1.96,2.2,3.64,2.2c1.54,0,2.95-0.24,4.25-0.72c1.3-0.48,2.5-1.05,3.6-1.73c0.43-0.29,0.88-0.56,1.33-0.83
				c0.46-0.26,0.85-0.4,1.19-0.4c0.29,0,0.52,0.11,0.68,0.32c0.17,0.22,0.25,0.52,0.25,0.9c0,0.86-0.32,1.87-0.97,3.02
				c-0.65,1.15-1.61,2.27-2.88,3.35c-1.27,1.08-2.78,1.97-4.54,2.66C183.02,444.4,181.01,444.75,178.76,444.75z"/>
			<path class="st6" d="M202.44,444.6c-1.73,0-2.88-0.44-3.46-1.33c-0.58-0.89-0.84-2.2-0.79-3.92c0.05-1.63,0.18-3.58,0.4-5.83
				c0.22-2.26,0.47-4.49,0.76-6.7l2.52-18.94c0.24-1.82,0.19-3.36-0.14-4.61c-0.34-1.25-0.71-2.36-1.12-3.35
				c-0.41-0.98-0.61-1.93-0.61-2.84c0-0.72,0.46-1.36,1.37-1.91c0.91-0.55,2.03-1,3.35-1.33c1.32-0.33,2.58-0.5,3.78-0.5
				c1.82,0,3.13,0.55,3.92,1.66s1.19,2.35,1.19,3.74c0,0.72-0.05,1.85-0.14,3.38c-0.1,1.54-0.29,3.29-0.58,5.26l-2.3,16.56
				c-0.48,3.46-0.85,6.98-1.12,10.58c-0.26,3.6-0.52,6.96-0.76,10.08H202.44z"/>
			<path class="st6" d="M229.88,444.75c-3.7,0-6.73-1.16-9.11-3.49s-3.56-5.53-3.56-9.61c0-3.41,0.53-6.53,1.58-9.36
				c1.06-2.83,2.53-5.3,4.43-7.42c1.9-2.11,4.08-3.74,6.55-4.9c2.47-1.15,5.1-1.73,7.88-1.73c3.07,0,5.66,0.71,7.78,2.12
				c2.11,1.42,3.17,3.47,3.17,6.16c0,2.59-0.97,4.87-2.92,6.84c-1.94,1.97-4.64,3.66-8.1,5.08c-3.46,1.42-7.46,2.6-12.02,3.56
				l-0.94-5.04c2.3-0.29,4.43-0.83,6.37-1.62s3.54-1.84,4.79-3.13c1.25-1.3,1.92-2.78,2.02-4.46c0.1-1.15-0.07-2.12-0.5-2.92
				c-0.43-0.79-1.08-1.19-1.94-1.19c-1.06,0-2.12,0.7-3.2,2.09c-1.08,1.39-1.98,3.24-2.7,5.54c-0.72,2.3-1.08,4.8-1.08,7.49
				c0,2.45,0.29,4.4,0.86,5.87c0.58,1.46,1.85,2.2,3.82,2.2c1.97,0,3.88-0.4,5.72-1.19c1.85-0.79,3.37-1.57,4.57-2.34
				c0.38-0.24,0.77-0.47,1.15-0.68c0.38-0.22,0.72-0.32,1.01-0.32c0.34,0,0.6,0.13,0.79,0.4c0.19,0.26,0.29,0.59,0.29,0.97
				c0,0.86-0.36,1.92-1.08,3.17c-0.72,1.25-1.79,2.47-3.2,3.67c-1.42,1.2-3.16,2.21-5.22,3.02
				C235.01,444.34,232.61,444.75,229.88,444.75z"/>
			<path class="st6" d="M287.62,444.75c-4.08,0-7.74-0.8-10.98-2.41s-5.81-4.02-7.7-7.24c-1.9-3.21-2.84-7.17-2.84-11.88
				c0-4.32,0.74-8.29,2.23-11.92c1.49-3.62,3.56-6.77,6.23-9.43s5.81-4.73,9.43-6.19c3.62-1.46,7.57-2.2,11.84-2.2
				c4.22,0,7.45,0.47,9.68,1.4s3.35,2.72,3.35,5.36c0,1.34-0.29,2.53-0.86,3.56c-0.58,1.03-1.22,1.55-1.94,1.55
				c-0.43,0-1.1-0.28-2.02-0.83c-0.91-0.55-1.68-1.02-2.3-1.4c-1.15-0.77-2.42-1.55-3.82-2.34c-1.39-0.79-2.98-1.19-4.75-1.19
				c-2.88,0-5.39,0.9-7.52,2.7c-2.14,1.8-3.79,4.37-4.97,7.7c-1.18,3.34-1.76,7.31-1.76,11.92c0,3.79,0.43,6.92,1.3,9.4
				c0.86,2.47,2.09,4.3,3.67,5.47c1.58,1.18,3.43,1.76,5.54,1.76c1.82,0,3.47-0.4,4.93-1.19c1.46-0.79,2.77-1.72,3.92-2.77
				c1.15-1.06,2.2-1.98,3.13-2.77c0.94-0.79,1.84-1.19,2.7-1.19c0.72,0,1.27,0.24,1.66,0.72c0.38,0.48,0.58,1.13,0.58,1.94
				c0,2.11-0.85,4.04-2.56,5.8c-1.71,1.75-3.97,3.13-6.8,4.14C294.15,444.24,291.03,444.75,287.62,444.75z"/>
			<path class="st6" d="M315.77,444.6c-1.73,0-2.88-0.44-3.46-1.33c-0.58-0.89-0.84-2.2-0.79-3.92c0.05-1.63,0.18-3.58,0.4-5.83
				c0.22-2.26,0.47-4.49,0.76-6.7l2.52-18.94c0.24-1.82,0.19-3.36-0.14-4.61c-0.34-1.25-0.71-2.36-1.12-3.35
				c-0.41-0.98-0.61-1.93-0.61-2.84c0-0.72,0.46-1.36,1.37-1.91c0.91-0.55,2.03-1,3.35-1.33c1.32-0.33,2.58-0.5,3.78-0.5
				c1.82,0,3.13,0.55,3.92,1.66s1.19,2.35,1.19,3.74c0,0.72-0.05,1.85-0.14,3.38c-0.1,1.54-0.29,3.29-0.58,5.26l-2.3,16.56
				c-0.48,3.46-0.85,6.98-1.12,10.58c-0.26,3.6-0.52,6.96-0.76,10.08H315.77z"/>
			<path class="st6" d="M339.39,444.75c-2.69,0-4.79-1.12-6.3-3.35c-1.51-2.23-2.27-5.27-2.27-9.11c0-3.5,0.56-6.72,1.69-9.65
				c1.13-2.93,2.66-5.46,4.61-7.6c1.94-2.14,4.14-3.79,6.59-4.97c2.45-1.18,4.99-1.76,7.63-1.76c2.06,0,3.95,0.28,5.65,0.83
				c1.7,0.55,3.16,1.12,4.36,1.69l-2.09,9.65c-1.25-0.86-2.64-1.76-4.18-2.7c-1.54-0.94-3.02-1.73-4.46-2.38
				c-1.44-0.65-2.66-0.97-3.67-0.97c-0.96,0-1.86,0.77-2.7,2.3c-0.84,1.54-1.51,3.47-2.02,5.8s-0.76,4.72-0.76,7.16
				c0,2.11,0.12,3.88,0.36,5.29c0.24,1.42,0.67,2.12,1.3,2.12c0.53,0,1.43-0.63,2.7-1.91c1.27-1.27,2.87-3.49,4.79-6.66
				c1.92-3.17,4.06-7.58,6.41-13.25l2.81,6.91c-2.59,5.76-5.06,10.28-7.42,13.57c-2.35,3.29-4.6,5.6-6.73,6.95
				C343.55,444.07,341.45,444.75,339.39,444.75z M357.75,444.31c-1.54,0-2.57-0.34-3.1-1.01s-0.79-1.54-0.79-2.59
				c0-0.82,0.11-1.88,0.32-3.2c0.22-1.32,0.49-2.75,0.83-4.28c0.33-1.54,0.7-2.98,1.08-4.32l1.58-5.4l-2.45-1.87l1.73-10.87
				c1.54-0.24,3.01-0.55,4.43-0.94c1.42-0.38,2.67-0.72,3.78-1.01c1.1-0.29,1.92-0.43,2.45-0.43c0.91,0,1.37,0.48,1.37,1.44
				c0,0.43-0.3,1.49-0.9,3.17c-0.6,1.68-1.24,3.8-1.91,6.37c-0.67,2.57-1.18,5.44-1.51,8.6l-1.58,16.34H357.75z"/>
			<path class="st6" d="M382.66,444.75c-4.03,0-7.18-0.59-9.43-1.76c-2.26-1.18-3.38-2.92-3.38-5.22c0-1.58,0.22-2.82,0.65-3.71
				c0.43-0.89,0.94-1.33,1.51-1.33c0.43,0,0.86,0.12,1.3,0.36s1.03,0.65,1.8,1.22c0.82,0.58,1.8,1.2,2.95,1.87
				c1.15,0.67,2.34,1.25,3.56,1.73c1.22,0.48,2.31,0.72,3.28,0.72c1.01,0,1.87-0.24,2.59-0.72c0.72-0.48,1.08-1.2,1.08-2.16
				c0-0.67-0.19-1.27-0.58-1.8c-0.38-0.53-1.15-1.13-2.3-1.8l-5.47-3.24c-2.06-1.25-3.67-2.65-4.82-4.21
				c-1.15-1.56-1.73-3.39-1.73-5.51c0-3.26,1.2-5.89,3.6-7.88c2.4-1.99,6.1-2.99,11.09-2.99c3.07,0,5.45,0.29,7.13,0.86
				c1.68,0.58,2.52,1.63,2.52,3.17c0,1.54-0.25,2.88-0.76,4.03c-0.5,1.15-1.17,1.73-1.98,1.73c-0.29,0-0.6-0.07-0.94-0.22
				c-0.34-0.14-0.67-0.29-1.01-0.43c-0.53-0.24-1.22-0.62-2.09-1.15c-0.86-0.53-1.76-1.01-2.7-1.44c-0.94-0.43-1.84-0.65-2.7-0.65
				c-0.91,0-1.6,0.25-2.05,0.76s-0.68,1.07-0.68,1.69c0,0.72,0.2,1.34,0.61,1.87c0.41,0.53,1.28,1.06,2.63,1.58l4.82,1.94
				c2.64,1.06,4.57,2.4,5.8,4.03c1.22,1.63,1.84,3.58,1.84,5.83c0,2.74-0.75,5.06-2.23,6.98c-1.49,1.92-3.46,3.37-5.9,4.36
				C388.2,444.25,385.54,444.75,382.66,444.75z"/>
			<path class="st6" d="M413.33,444.75c-4.03,0-7.18-0.59-9.43-1.76c-2.26-1.18-3.38-2.92-3.38-5.22c0-1.58,0.22-2.82,0.65-3.71
				c0.43-0.89,0.94-1.33,1.51-1.33c0.43,0,0.86,0.12,1.3,0.36s1.03,0.65,1.8,1.22c0.82,0.58,1.8,1.2,2.95,1.87
				c1.15,0.67,2.34,1.25,3.56,1.73c1.22,0.48,2.31,0.72,3.28,0.72c1.01,0,1.87-0.24,2.59-0.72c0.72-0.48,1.08-1.2,1.08-2.16
				c0-0.67-0.19-1.27-0.58-1.8c-0.38-0.53-1.15-1.13-2.3-1.8l-5.47-3.24c-2.06-1.25-3.67-2.65-4.82-4.21
				c-1.15-1.56-1.73-3.39-1.73-5.51c0-3.26,1.2-5.89,3.6-7.88c2.4-1.99,6.1-2.99,11.09-2.99c3.07,0,5.45,0.29,7.13,0.86
				c1.68,0.58,2.52,1.63,2.52,3.17c0,1.54-0.25,2.88-0.76,4.03c-0.5,1.15-1.17,1.73-1.98,1.73c-0.29,0-0.6-0.07-0.94-0.22
				c-0.34-0.14-0.67-0.29-1.01-0.43c-0.53-0.24-1.22-0.62-2.09-1.15c-0.86-0.53-1.76-1.01-2.7-1.44c-0.94-0.43-1.84-0.65-2.7-0.65
				c-0.91,0-1.6,0.25-2.05,0.76s-0.68,1.07-0.68,1.69c0,0.72,0.2,1.34,0.61,1.87c0.41,0.53,1.28,1.06,2.63,1.58l4.82,1.94
				c2.64,1.06,4.57,2.4,5.8,4.03c1.22,1.63,1.84,3.58,1.84,5.83c0,2.74-0.75,5.06-2.23,6.98c-1.49,1.92-3.46,3.37-5.9,4.36
				C418.87,444.25,416.21,444.75,413.33,444.75z"/>
		</g>
	</g>
</g>
</svg>
